# 3ds Max Wavefront OBJ Exporter v0.97b - (c)2007 guruware
# File Created: 22.05.2019 23:12:42

mtllib asset_ordenador.mtl

#
# object Box001
#

v  -6.5777 0.0000 6.7541
v  -7.4372 0.0000 3.0293
v  -2.6400 0.0000 3.0293
v  -2.4172 0.0000 6.7541
v  2.6400 0.0000 3.0293
v  2.4172 0.0000 6.7541
v  7.4372 0.0000 3.0293
v  6.5777 0.0000 6.7541
v  -6.9150 0.0000 -0.6955
v  -2.5046 0.0000 -0.6955
v  2.5046 0.0000 -0.6955
v  6.9150 0.0000 -0.6955
v  -5.7080 0.0000 -4.4204
v  -2.1917 0.0000 -4.4204
v  2.1917 0.0000 -4.4204
v  5.7080 0.0000 -4.4204
v  -6.5777 0.4667 6.7541
v  -2.4172 0.4667 6.7541
v  -2.6400 0.4667 3.0293
v  -7.4372 0.4667 3.0293
v  2.4172 0.4667 6.7541
v  2.6400 0.4667 3.0293
v  6.5777 0.4667 6.7541
v  7.4372 0.4667 3.0293
v  -2.5046 0.4667 -0.6955
v  -6.9150 0.4667 -0.6955
v  2.5046 0.4667 -0.6955
v  6.9150 0.4667 -0.6955
v  -2.1917 0.4667 -4.4204
v  -5.7080 0.4667 -4.4204
v  2.1917 0.4667 -4.4204
v  5.7080 0.4667 -4.4204
# 32 vertices

vn -0.5025 -0.5903 0.6317
vn -0.7431 -0.6684 0.0325
vn 0.0000 -1.0000 -0.0000
vn 0.0000 -0.7071 0.7071
vn 0.7431 -0.6684 0.0325
vn 0.5025 -0.5903 0.6317
vn -0.7071 -0.6881 -0.1628
vn 0.7072 -0.6881 -0.1628
vn -0.4724 -0.5956 -0.6497
vn 0.0000 -0.7071 -0.7071
vn -0.0000 -0.7071 -0.7071
vn 0.4724 -0.5956 -0.6497
vn -0.5025 0.5903 0.6317
vn 0.0000 0.7071 0.7071
vn 0.0000 1.0000 -0.0000
vn -0.7431 0.6684 0.0325
vn -0.0000 0.7071 0.7071
vn -0.0000 1.0000 -0.0000
vn 0.5025 0.5903 0.6317
vn 0.7431 0.6684 0.0325
vn 0.0000 1.0000 0.0000
vn -0.7071 0.6881 -0.1628
vn -0.0000 1.0000 0.0000
vn 0.7072 0.6881 -0.1628
vn 0.0000 0.7071 -0.7071
vn -0.4724 0.5956 -0.6497
vn -0.0000 0.7071 -0.7071
vn 0.4724 0.5956 -0.6497
# 28 vertex normals

vt 1.0000 0.0000 0.0000
vt 1.0000 0.3333 0.0000
vt 0.6667 0.3333 0.0000
vt 0.6667 0.0000 0.0000
vt 0.3333 0.3333 0.0000
vt 0.3333 0.0000 0.0000
vt 0.0000 0.3333 0.0000
vt 0.0000 0.0000 0.0000
vt 1.0000 0.6667 0.0000
vt 0.6667 0.6667 0.0000
vt 0.3333 0.6667 0.0000
vt 0.0000 0.6667 0.0000
vt 1.0000 1.0000 0.0000
vt 0.6667 1.0000 0.0000
vt 0.3333 1.0000 0.0000
vt 0.0000 1.0000 0.0000
# 16 texture coords

o Box001
g Box001
usemtl wire_153228153
s 2
f 1/1/1 2/2/2 3/3/3 4/4/4 
f 4/4/4 3/3/3 5/5/3 6/6/4 
f 6/6/4 5/5/3 7/7/5 8/8/6 
f 2/2/2 9/9/7 10/10/3 3/3/3 
f 3/3/3 10/10/3 11/11/3 5/5/3 
f 5/5/3 11/11/3 12/12/8 7/7/5 
f 9/9/7 13/13/9 14/14/10 10/10/3 
f 10/10/3 14/14/10 15/15/11 11/11/3 
f 11/11/3 15/15/11 16/16/12 12/12/8 
s 4
f 17/8/13 18/6/14 19/5/15 20/7/16 
f 18/6/14 21/4/17 22/3/18 19/5/15 
f 21/4/17 23/1/19 24/2/20 22/3/18 
f 20/7/16 19/5/15 25/11/21 26/12/22 
f 19/5/15 22/3/18 27/10/23 25/11/21 
f 22/3/18 24/2/20 28/9/24 27/10/23 
f 26/12/22 25/11/21 29/15/25 30/16/26 
f 25/11/21 27/10/23 31/14/27 29/15/25 
f 27/10/23 28/9/24 32/13/28 31/14/27 
s 8
f 1/8/1 4/6/4 18/15/14 17/16/13 
f 4/6/4 6/4/4 21/14/17 18/15/14 
f 6/4/4 8/1/6 23/13/19 21/14/17 
s 16
f 8/8/6 7/6/5 24/15/20 23/16/19 
f 7/6/5 12/4/8 28/14/24 24/15/20 
f 12/4/8 16/1/12 32/13/28 28/14/24 
s 32
f 16/8/12 15/6/11 31/15/27 32/16/28 
f 15/6/11 14/4/10 29/14/25 31/15/27 
f 14/4/10 13/1/9 30/13/26 29/14/25 
s 64
f 13/8/9 9/6/7 26/15/22 30/16/26 
f 9/6/7 2/4/2 20/14/16 26/15/22 
f 2/4/2 1/1/1 17/13/13 20/14/16 
# 30 polygons

#
# object Box002
#

v  -1.1510 0.2798 0.1311
v  -1.1510 4.3380 -0.3438
v  -0.3837 4.3380 -0.3438
v  -0.3837 0.2798 0.1311
v  0.3837 4.3380 -0.3438
v  0.3837 0.2798 0.1311
v  1.1510 4.3380 -0.3438
v  1.1510 0.2798 0.1311
v  -1.1510 8.3962 -0.8186
v  -0.3837 8.3962 -0.8186
v  0.3837 8.3962 -0.8186
v  1.1510 8.3962 -0.8186
v  -1.1510 12.4544 -1.2934
v  -0.3837 12.4544 -1.2934
v  0.3837 12.4544 -1.2934
v  1.1510 12.4544 -1.2934
v  -1.1510 0.3103 0.5960
v  -0.3837 0.3103 0.5960
v  -0.3837 4.3684 0.1212
v  -1.1510 4.3684 0.1212
v  0.3837 0.3103 0.5960
v  0.3837 4.3684 0.1212
v  1.1510 0.3103 0.5960
v  1.1510 4.3684 0.1212
v  -0.3837 8.4266 -0.3536
v  -1.1510 8.4266 -0.3536
v  0.3837 8.4266 -0.3536
v  1.1510 8.4266 -0.3536
v  -0.3837 12.4848 -0.8284
v  -1.1510 12.4848 -0.8284
v  0.3837 12.4848 -0.8284
v  1.1510 12.4848 -0.8284
# 32 vertices

vn -0.5774 -0.6111 -0.5090
vn -0.7071 -0.0462 -0.7056
vn 0.0000 -0.0653 -0.9979
vn 0.0000 -0.7485 -0.6234
vn 0.7071 -0.0462 -0.7056
vn 0.5774 -0.6111 -0.5090
vn -0.5774 0.5357 -0.6432
vn 0.0000 0.6562 -0.7878
vn 0.5774 0.5357 -0.6432
vn -0.5774 -0.5357 0.6432
vn 0.0000 -0.6562 0.7878
vn 0.0000 0.0653 0.9979
vn -0.7071 0.0462 0.7056
vn 0.5774 -0.5357 0.6432
vn 0.7071 0.0462 0.7056
vn 0.0000 0.7485 0.6234
vn -0.5774 0.6111 0.5090
vn 0.5774 0.6111 0.5090
# 18 vertex normals

vt 1.0000 0.0000 0.0000
vt 1.0000 0.3333 0.0000
vt 0.6667 0.3333 0.0000
vt 0.6667 0.0000 0.0000
vt 0.3333 0.3333 0.0000
vt 0.3333 0.0000 0.0000
vt 0.0000 0.3333 0.0000
vt 0.0000 0.0000 0.0000
vt 1.0000 0.6667 0.0000
vt 0.6667 0.6667 0.0000
vt 0.3333 0.6667 0.0000
vt 0.0000 0.6667 0.0000
vt 1.0000 1.0000 0.0000
vt 0.6667 1.0000 0.0000
vt 0.3333 1.0000 0.0000
vt 0.0000 1.0000 0.0000
# 16 texture coords

o Box002
g Box002
usemtl wire_153228153
s 2
f 33/17/29 34/18/30 35/19/31 36/20/32 
f 36/20/32 35/19/31 37/21/31 38/22/32 
f 38/22/32 37/21/31 39/23/33 40/24/34 
f 34/18/30 41/25/30 42/26/31 35/19/31 
f 35/19/31 42/26/31 43/27/31 37/21/31 
f 37/21/31 43/27/31 44/28/33 39/23/33 
f 41/25/30 45/29/35 46/30/36 42/26/31 
f 42/26/31 46/30/36 47/31/36 43/27/31 
f 43/27/31 47/31/36 48/32/37 44/28/33 
s 4
f 49/24/38 50/22/39 51/21/40 52/23/41 
f 50/22/39 53/20/39 54/19/40 51/21/40 
f 53/20/39 55/17/42 56/18/43 54/19/40 
f 52/23/41 51/21/40 57/27/40 58/28/41 
f 51/21/40 54/19/40 59/26/40 57/27/40 
f 54/19/40 56/18/43 60/25/43 59/26/40 
f 58/28/41 57/27/40 61/31/44 62/32/45 
f 57/27/40 59/26/40 63/30/44 61/31/44 
f 59/26/40 60/25/43 64/29/46 63/30/44 
s 8
f 33/24/29 36/22/32 50/31/39 49/32/38 
f 36/22/32 38/20/32 53/30/39 50/31/39 
f 38/20/32 40/17/34 55/29/42 53/30/39 
s 16
f 40/24/34 39/22/33 56/31/43 55/32/42 
f 39/22/33 44/20/33 60/30/43 56/31/43 
f 44/20/33 48/17/37 64/29/46 60/30/43 
s 32
f 48/24/37 47/22/36 63/31/44 64/32/46 
f 47/22/36 46/20/36 61/30/44 63/31/44 
f 46/20/36 45/17/35 62/29/45 61/30/44 
s 64
f 45/24/35 41/22/30 58/31/41 62/32/45 
f 41/22/30 34/20/30 52/30/41 58/31/41 
f 34/20/30 33/17/29 49/29/38 52/30/41 
# 30 polygons

#
# object Box003
#

v  -6.2354 11.7176 -1.2256
v  -6.2354 12.5722 -1.3627
v  -2.0785 12.5722 -1.3627
v  -2.0785 11.7176 -1.2256
v  2.0785 12.5722 -1.3627
v  2.0785 11.7176 -1.2256
v  6.2354 12.5722 -1.3627
v  6.2354 11.7176 -1.2256
v  -6.2354 13.4268 -1.4998
v  -2.0785 13.4268 -1.4998
v  2.0785 13.4268 -1.4998
v  6.2354 13.4268 -1.4998
v  -6.2354 14.2814 -1.6370
v  -2.0785 14.2814 -1.6370
v  2.0785 14.2814 -1.6370
v  6.2354 14.2814 -1.6370
v  -6.2354 11.6199 -0.6496
v  -2.0785 11.6199 -0.6496
v  -2.0785 12.4745 -0.7868
v  -6.2354 12.4745 -0.7868
v  2.0785 11.6199 -0.6496
v  2.0785 12.4745 -0.7868
v  6.2354 11.6199 -0.6496
v  6.2354 12.4745 -0.7868
v  -2.0785 13.3290 -0.9239
v  -6.2354 13.3290 -0.9239
v  2.0785 13.3290 -0.9239
v  6.2354 13.3290 -0.9239
v  -2.0785 14.1836 -1.0610
v  -6.2354 14.1836 -1.0610
v  2.0785 14.1836 -1.0610
v  6.2354 14.1836 -1.0610
# 32 vertices

vn -0.5774 -0.4734 -0.4777
vn -0.7071 0.1183 -0.6971
vn 0.0000 0.1674 -0.9859
vn -0.0000 -0.5798 -0.5851
vn 0.7071 0.1183 -0.6971
vn 0.5774 -0.4734 -0.4777
vn -0.5774 0.6667 -0.6607
vn 0.0000 0.8165 -0.8092
vn 0.5774 0.6667 -0.6607
vn -0.5774 -0.6667 0.6607
vn -0.0000 -0.8165 0.8092
vn -0.0000 -0.1674 0.9859
vn -0.7071 -0.1183 0.6971
vn 0.5774 -0.6667 0.6607
vn 0.7071 -0.1183 0.6971
vn 0.0000 0.5798 0.5851
vn -0.5774 0.4734 0.4777
vn 0.5774 0.4734 0.4777
# 18 vertex normals

vt 1.0000 0.0000 0.0000
vt 1.0000 0.3333 0.0000
vt 0.6667 0.3333 0.0000
vt 0.6667 0.0000 0.0000
vt 0.3333 0.3333 0.0000
vt 0.3333 0.0000 0.0000
vt 0.0000 0.3333 0.0000
vt 0.0000 0.0000 0.0000
vt 1.0000 0.6667 0.0000
vt 0.6667 0.6667 0.0000
vt 0.3333 0.6667 0.0000
vt 0.0000 0.6667 0.0000
vt 1.0000 1.0000 0.0000
vt 0.6667 1.0000 0.0000
vt 0.3333 1.0000 0.0000
vt 0.0000 1.0000 0.0000
# 16 texture coords

o Box003
g Box003
usemtl wire_153228153
s 2
f 65/33/47 66/34/48 67/35/49 68/36/50 
f 68/36/50 67/35/49 69/37/49 70/38/50 
f 70/38/50 69/37/49 71/39/51 72/40/52 
f 66/34/48 73/41/48 74/42/49 67/35/49 
f 67/35/49 74/42/49 75/43/49 69/37/49 
f 69/37/49 75/43/49 76/44/51 71/39/51 
f 73/41/48 77/45/53 78/46/54 74/42/49 
f 74/42/49 78/46/54 79/47/54 75/43/49 
f 75/43/49 79/47/54 80/48/55 76/44/51 
s 4
f 81/40/56 82/38/57 83/37/58 84/39/59 
f 82/38/57 85/36/57 86/35/58 83/37/58 
f 85/36/57 87/33/60 88/34/61 86/35/58 
f 84/39/59 83/37/58 89/43/58 90/44/59 
f 83/37/58 86/35/58 91/42/58 89/43/58 
f 86/35/58 88/34/61 92/41/61 91/42/58 
f 90/44/59 89/43/58 93/47/62 94/48/63 
f 89/43/58 91/42/58 95/46/62 93/47/62 
f 91/42/58 92/41/61 96/45/64 95/46/62 
s 8
f 65/40/47 68/38/50 82/47/57 81/48/56 
f 68/38/50 70/36/50 85/46/57 82/47/57 
f 70/36/50 72/33/52 87/45/60 85/46/57 
s 16
f 72/40/52 71/38/51 88/47/61 87/48/60 
f 71/38/51 76/36/51 92/46/61 88/47/61 
f 76/36/51 80/33/55 96/45/64 92/46/61 
s 32
f 80/40/55 79/38/54 95/47/62 96/48/64 
f 79/38/54 78/36/54 93/46/62 95/47/62 
f 78/36/54 77/33/53 94/45/63 93/46/62 
s 64
f 77/40/53 73/38/48 90/47/59 94/48/63 
f 73/38/48 66/36/48 84/46/59 90/47/59 
f 66/36/48 65/33/47 81/45/56 84/46/59 
# 30 polygons

#
# object Plane001
#

v  -22.8876 17.1952 -1.8218
v  -22.8876 12.1658 -1.0494
v  -11.4313 12.1658 -1.0494
v  -11.4313 17.1952 -1.8218
v  0.0249 12.1658 -1.0494
v  0.0249 17.1952 -1.8218
v  11.4812 12.1658 -1.0494
v  11.4812 17.1952 -1.8218
v  22.9374 12.1658 -1.0494
v  22.9374 17.1952 -1.8218
v  -22.8876 22.2246 -2.5942
v  -11.4313 22.2246 -2.5942
v  0.0249 22.2246 -2.5942
v  11.4812 22.2246 -2.5942
v  22.9374 22.2246 -2.5942
v  -22.8876 27.2540 -3.3666
v  -11.4313 27.2540 -3.3666
v  0.0249 27.2540 -3.3666
v  11.4812 27.2540 -3.3666
v  22.9374 27.2540 -3.3666
v  -22.8876 32.2834 -4.1390
v  -11.4313 32.2834 -4.1390
v  0.0249 32.2834 -4.1390
v  11.4812 32.2834 -4.1390
v  22.9374 32.2834 -4.1390
# 25 vertices

vn 0.0000 0.1518 0.9884
# 1 vertex normals

vt 0.0000 0.2500 0.0000
vt 0.0000 0.0000 0.0000
vt 0.2500 0.0000 0.0000
vt 0.2500 0.2500 0.0000
vt 0.5000 0.0000 0.0000
vt 0.5000 0.2500 0.0000
vt 0.7500 0.0000 0.0000
vt 0.7500 0.2500 0.0000
vt 1.0000 0.0000 0.0000
vt 1.0000 0.2500 0.0000
vt 0.0000 0.5000 0.0000
vt 0.2500 0.5000 0.0000
vt 0.5000 0.5000 0.0000
vt 0.7500 0.5000 0.0000
vt 1.0000 0.5000 0.0000
vt 0.0000 0.7500 0.0000
vt 0.2500 0.7500 0.0000
vt 0.5000 0.7500 0.0000
vt 0.7500 0.7500 0.0000
vt 1.0000 0.7500 0.0000
vt 0.0000 1.0000 0.0000
vt 0.2500 1.0000 0.0000
vt 0.5000 1.0000 0.0000
vt 0.7500 1.0000 0.0000
vt 1.0000 1.0000 0.0000
# 25 texture coords

o Plane001
g Plane001
usemtl wire_228184153
s 1
f 97/49/65 98/50/65 99/51/65 100/52/65 
f 100/52/65 99/51/65 101/53/65 102/54/65 
f 102/54/65 101/53/65 103/55/65 104/56/65 
f 104/56/65 103/55/65 105/57/65 106/58/65 
f 107/59/65 97/49/65 100/52/65 108/60/65 
f 108/60/65 100/52/65 102/54/65 109/61/65 
f 109/61/65 102/54/65 104/56/65 110/62/65 
f 110/62/65 104/56/65 106/58/65 111/63/65 
f 112/64/65 107/59/65 108/60/65 113/65/65 
f 113/65/65 108/60/65 109/61/65 114/66/65 
f 114/66/65 109/61/65 110/62/65 115/67/65 
f 115/67/65 110/62/65 111/63/65 116/68/65 
f 117/69/65 112/64/65 113/65/65 118/70/65 
f 118/70/65 113/65/65 114/66/65 119/71/65 
f 119/71/65 114/66/65 115/67/65 120/72/65 
f 120/72/65 115/67/65 116/68/65 121/73/65 
# 16 polygons

