# 3ds Max Wavefront OBJ Exporter v0.97b - (c)2007 guruware
# File Created: 23.05.2019 17:48:52

mtllib asset_cardboardbox.mtl

#
# object Box001
#

v  -24.6458 0.6282 -14.4202
v  -24.6458 26.7759 -14.4202
v  24.2008 26.7759 -14.4202
v  24.2008 0.6282 -14.4202
v  -24.6458 0.6282 13.5104
v  24.2008 0.6282 13.5104
v  24.2008 26.7759 13.5104
v  -24.6458 26.7759 13.5104
# 8 vertices

vn -0.5774 -0.5774 -0.5774
vn -0.5774 0.5774 -0.5774
vn 0.5774 0.5774 -0.5774
vn 0.5774 -0.5774 -0.5774
vn -0.5774 -0.5774 0.5774
vn 0.5774 -0.5774 0.5774
vn 0.5774 0.5774 0.5774
vn -0.5774 0.5774 0.5774
# 8 vertex normals

vt 0.2228 0.4126 0.2500
vt 0.2228 0.2228 -0.2500
vt 0.7772 0.2228 -0.2500
vt 0.7772 0.4126 0.2500
vt 0.2228 0.6154 -0.2500
vt 0.7772 0.6154 -0.2500
vt 0.7772 0.8053 -0.2500
vt 0.2228 0.8053 -0.2500
vt 0.9800 0.2228 -0.2500
vt 0.9800 0.4126 -0.2500
vt 0.2228 0.0200 -0.2500
vt 0.7772 0.0200 -0.2500
vt 0.0200 0.4126 -0.2500
vt 0.0200 0.2228 -0.2500
# 14 texture coords

o Box001
g Box001
usemtl wire_065049027
s 2
f 1/1/1 2/2/2 3/3/3 4/4/4 
s 4
f 5/5/5 6/6/6 7/7/7 8/8/8 
s 8
f 1/1/1 4/4/4 6/6/6 5/5/5 
s 16
f 4/4/4 3/3/3 7/9/7 6/10/6 
s 32
f 3/3/3 2/2/2 8/11/8 7/12/7 
s 64
f 2/2/2 1/1/1 5/13/5 8/14/8 
# 6 polygons

